<?xml version="1.0" encoding="UTF-8" standalone="no"?>
<!-- Created with Inkscape (http://www.inkscape.org/) -->

<svg
   width="156.51007mm"
   height="156.51007mm"
   viewBox="0 0 156.51007 156.51007"
   version="1.1"
   id="svg1"
   inkscape:version="1.4 (1:1.4+202410161351+e7c3feb100)"
   sodipodi:docname="cns.svg"
   xmlns:inkscape="http://www.inkscape.org/namespaces/inkscape"
   xmlns:sodipodi="http://sodipodi.sourceforge.net/DTD/sodipodi-0.dtd"
   xmlns="http://www.w3.org/2000/svg"
   xmlns:svg="http://www.w3.org/2000/svg">
  <sodipodi:namedview
     id="namedview1"
     pagecolor="#505050"
     bordercolor="#eeeeee"
     borderopacity="1"
     inkscape:showpageshadow="0"
     inkscape:pageopacity="0"
     inkscape:pagecheckerboard="0"
     inkscape:deskcolor="#505050"
     inkscape:document-units="mm"
     inkscape:zoom="1.0253718"
     inkscape:cx="-78.02048"
     inkscape:cy="188.71204"
     inkscape:window-width="3440"
     inkscape:window-height="1353"
     inkscape:window-x="0"
     inkscape:window-y="0"
     inkscape:window-maximized="1"
     inkscape:current-layer="layer1" />
  <defs
     id="defs1" />
  <g
     inkscape:label="Layer 1"
     inkscape:groupmode="layer"
     id="layer1"
     transform="translate(-35.221947,-69.282761)">
    <rect
       style="fill:#ff9ced;fill-opacity:1;stroke:none;stroke-width:0.587696;stroke-linecap:round;stroke-linejoin:round"
       id="rect1"
       width="117.53952"
       height="117.53952"
       x="125.79556"
       y="-34.685127"
       rx="11.753952"
       ry="11.753952"
       transform="rotate(45)" />
    <g
       id="text1">
      <path
         style="-inkscape-font-specification:'Garet weight=850';fill:#c54b8c;stroke-linecap:round;stroke-linejoin:round"
         d="m 64.732829,160.46263 q -2.524125,0 -4.143375,-1.524 -1.571625,-1.524 -1.571625,-3.90525 0,-2.42887 1.571625,-3.95287 1.61925,-1.524 4.143375,-1.524 2.524125,0 4.09575,1.524 1.571625,1.524 1.571625,3.95287 0,2.38125 -1.61925,3.90525 -1.571625,1.524 -4.048125,1.524 z m 22.420759,0.0953 q -4.333875,0 -7.71525,-1.66687 -3.33375,-1.7145 -5.191125,-4.7625 -1.857375,-3.048 -1.857375,-6.95325 0,-3.90525 1.857375,-6.95325 1.905,-3.048 5.23875,-4.71488 3.381375,-1.7145 7.667625,-1.7145 3.952875,0 7.096125,1.42875 3.190875,1.38113 5.1435,3.95288 1.952627,2.57175 2.381247,6.00075 H 91.725588 q -0.619125,-1.28588 -1.762125,-1.95263 -1.095375,-0.66675 -2.57175,-0.66675 -2.00025,0 -3.2385,1.28588 -1.190625,1.23825 -1.190625,3.33375 0,2.04787 1.190625,3.33375 1.23825,1.23825 3.2385,1.23825 1.571625,0 2.714625,-0.762 1.190625,-0.80963 1.7145,-2.19075 h 10.096502 q -0.42863,3.57187 -2.428877,6.23887 -1.952625,2.667 -5.1435,4.09575 -3.14325,1.42875 -7.191375,1.42875 z m 31.802912,0 q -4.33388,0 -7.71525,-1.66687 -3.33375,-1.7145 -5.19113,-4.7625 -1.85737,-3.048 -1.85737,-6.95325 0,-3.90525 1.85737,-6.95325 1.905,-3.048 5.23875,-4.71488 3.38138,-1.7145 7.66763,-1.7145 3.95287,0 7.09612,1.42875 3.19088,1.38113 5.1435,3.95288 1.95263,2.57175 2.38125,6.00075 H 123.5285 q -0.61913,-1.28588 -1.76213,-1.95263 -1.09537,-0.66675 -2.57175,-0.66675 -2.00025,0 -3.2385,1.28588 -1.19062,1.23825 -1.19062,3.33375 0,2.04787 1.19062,3.33375 1.23825,1.23825 3.2385,1.23825 1.57163,0 2.71463,-0.762 1.19062,-0.80963 1.7145,-2.19075 h 10.0965 q -0.42863,3.57187 -2.42888,6.23887 -1.95262,2.667 -5.1435,4.09575 -3.14325,1.42875 -7.19137,1.42875 z m 18.18219,0.42863 h 3.57187 q 1.47638,0 2.23838,-0.47625 0.762,-0.42863 1.19062,-1.47638 l -10.52512,-24.5745 h 11.811 l 2.286,7.00088 1.76212,5.5245 h 0.14288 l 1.524,-5.5245 2.04787,-7.00088 h 11.57288 l -10.8585,27.52725 q -1.143,3.048 -2.61938,4.71488 -1.47637,1.66687 -3.71475,2.33362 -2.23837,0.71438 -5.85787,0.71438 h -4.572 z"
         id="path1" />
      <path
         style="-inkscape-font-specification:'Garet weight=850';stroke-linecap:round;stroke-linejoin:round"
         d="m 87.154297,126.29297 c -3.849747,0 -7.649944,0.80367 -11.039063,2.51758 -3.338975,1.67378 -6.245791,4.26319 -8.228515,7.43554 a 7.50075,7.50075 0 0 0 -0.04492,0.0723 c -1.106097,1.81513 -1.819168,3.82167 -2.302735,5.88867 -0.266706,-0.0165 -0.545024,-0.15039 -0.80664,-0.15039 -3.192184,0 -6.787388,1.2135 -9.283203,3.5625 a 7.50075,7.50075 0 0 0 -0.08008,0.0762 c -2.477263,2.4022 -3.851563,6.101 -3.851563,9.33789 0,3.2375 1.402327,6.91405 3.851563,9.28907 a 7.50075,7.50075 0 0 0 0.08008,0.0781 c 2.495815,2.349 6.091019,3.5625 9.283203,3.5625 3.173499,0 6.768217,-1.24606 9.228515,-3.60937 0.04334,-0.0413 0.07447,-0.0966 0.117188,-0.13868 0.654936,0.43595 1.231578,0.98668 1.929687,1.34571 a 7.50075,7.50075 0 0 0 0.115235,0.0566 c 3.394032,1.67311 7.180464,2.4414 11.03125,2.4414 3.57352,0 7.079202,-0.64779 10.273437,-2.0957 2.075131,-0.93168 3.904266,-2.30792 5.572266,-3.86523 1.44223,1.36743 3.04824,2.55656 4.81055,3.46289 a 7.50075,7.50075 0 0 0 0.11523,0.0566 c 3.39403,1.67311 7.18046,2.4414 11.03125,2.4414 3.57352,0 7.0792,-0.64779 10.27344,-2.0957 0.14531,-0.0652 0.26433,-0.17946 0.4082,-0.24805 V 169.75 a 7.50075,7.50075 0 0 0 7.5,7.5 h 4.57227 c 2.87409,0 5.47166,-0.24082 8.05078,-1.05078 2.67896,-0.80906 5.24703,-2.39188 7.13672,-4.52539 1.85171,-2.09065 3.0504,-4.44951 4.02734,-7.05469 l 10.8125,-27.4082 a 7.50075,7.50075 0 0 0 -6.97656,-10.25196 H 153.1875 a 7.50075,7.50075 0 0 0 -3.83008,1.27539 7.50075,7.50075 0 0 0 -3.93164,-1.27539 h -11.81055 a 7.50075,7.50075 0 0 0 -3.61718,1.94727 c -0.31353,-0.15586 -0.58393,-0.39128 -0.9043,-0.53125 -3.15767,-1.42374 -6.62009,-2.08203 -10.13672,-2.08203 -3.84975,0 -7.64994,0.80367 -11.03906,2.51758 -1.79578,0.90019 -3.42604,2.1015 -4.89453,3.48047 -1.71195,-1.58974 -3.598755,-2.9838 -5.732424,-3.91602 -3.157669,-1.42375 -6.620085,-2.08203 -10.136719,-2.08203 z m 6.58789,10.45117 0.121094,0.0723 c -0.02133,-0.013 -0.04696,-0.0145 -0.06836,-0.0273 -0.01983,-0.0117 -0.03284,-0.0333 -0.05273,-0.0449 z m 31.802733,0 0.1211,0.0723 c -0.0213,-0.013 -0.047,-0.0145 -0.0684,-0.0273 -0.0198,-0.0117 -0.0328,-0.0333 -0.0527,-0.0449 z m -60.812498,16.21875 c -0.173316,0 0.661231,0.19667 0.998047,0.51367 l 0.08008,0.0781 c 0.353735,0.34301 0.707031,1.41601 0.707031,1.47851 0,-0.002 -0.325269,1.06145 -0.707031,1.43164 l -0.08008,0.0781 c -0.336816,0.317 -1.171363,0.51367 -0.998047,0.51367 0.173316,0 -0.732193,-0.21089 -1.125,-0.5918 -0.381763,-0.37019 -0.707031,-1.43323 -0.707031,-1.43164 0,-0.10896 0.384105,-1.15055 0.716796,-1.50781 0.395534,-0.32621 1.222307,-0.5625 1.115235,-0.5625 z m 40.806638,6.50195 -0.0508,0.0684 c 0.008,-0.0112 0.0111,-0.0259 0.0195,-0.0371 0.009,-0.0119 0.0225,-0.0193 0.0312,-0.0312 z m 31.80469,0 -0.0527,0.0684 c 0.007,-0.01 0.0104,-0.0216 0.0176,-0.0312 0.0101,-0.0138 0.0251,-0.0233 0.0352,-0.0371 z m 9.58008,7.40625 -0.29883,0.17578 c 0.049,-0.0275 0.0729,-0.0752 0.12109,-0.10351 0.0626,-0.0375 0.11476,-0.0329 0.17774,-0.0723 z"
         id="path2" />
    </g>
    <path
       d="m 64.732829,160.46263 q -2.524125,0 -4.143375,-1.524 -1.571625,-1.524 -1.571625,-3.90525 0,-2.42887 1.571625,-3.95287 1.61925,-1.524 4.143375,-1.524 2.524125,0 4.09575,1.524 1.571625,1.524 1.571625,3.95287 0,2.38125 -1.61925,3.90525 -1.571625,1.524 -4.048125,1.524 z m 22.420759,0.0953 q -4.333875,0 -7.71525,-1.66687 -3.33375,-1.7145 -5.191125,-4.7625 -1.857375,-3.048 -1.857375,-6.95325 0,-3.90525 1.857375,-6.95325 1.905,-3.048 5.23875,-4.71488 3.381375,-1.7145 7.667625,-1.7145 3.952875,0 7.096125,1.42875 3.190875,1.38113 5.1435,3.95288 1.952627,2.57175 2.381247,6.00075 H 91.725588 q -0.619125,-1.28588 -1.762125,-1.95263 -1.095375,-0.66675 -2.57175,-0.66675 -2.00025,0 -3.2385,1.28588 -1.190625,1.23825 -1.190625,3.33375 0,2.04787 1.190625,3.33375 1.23825,1.23825 3.2385,1.23825 1.571625,0 2.714625,-0.762 1.190625,-0.80963 1.7145,-2.19075 h 10.096502 q -0.42863,3.57187 -2.428877,6.23887 -1.952625,2.667 -5.1435,4.09575 -3.14325,1.42875 -7.191375,1.42875 z m 31.802912,0 q -4.33388,0 -7.71525,-1.66687 -3.33375,-1.7145 -5.19113,-4.7625 -1.85737,-3.048 -1.85737,-6.95325 0,-3.90525 1.85737,-6.95325 1.905,-3.048 5.23875,-4.71488 3.38138,-1.7145 7.66763,-1.7145 3.95287,0 7.09612,1.42875 3.19088,1.38113 5.1435,3.95288 1.95263,2.57175 2.38125,6.00075 H 123.5285 q -0.61913,-1.28588 -1.76213,-1.95263 -1.09537,-0.66675 -2.57175,-0.66675 -2.00025,0 -3.2385,1.28588 -1.19062,1.23825 -1.19062,3.33375 0,2.04787 1.19062,3.33375 1.23825,1.23825 3.2385,1.23825 1.57163,0 2.71463,-0.762 1.19062,-0.80963 1.7145,-2.19075 h 10.0965 q -0.42863,3.57187 -2.42888,6.23887 -1.95262,2.667 -5.1435,4.09575 -3.14325,1.42875 -7.19137,1.42875 z m 18.18219,0.42863 h 3.57187 q 1.47638,0 2.23838,-0.47625 0.762,-0.42863 1.19062,-1.47638 l -10.52512,-24.5745 h 11.811 l 2.286,7.00088 1.76212,5.5245 h 0.14288 l 1.524,-5.5245 2.04787,-7.00088 h 11.57288 l -10.8585,27.52725 q -1.143,3.048 -2.61938,4.71488 -1.47637,1.66687 -3.71475,2.33362 -2.23837,0.71438 -5.85787,0.71438 h -4.572 z"
       id="text2"
       style="-inkscape-font-specification:'Garet weight=850';fill:#c54b8c;stroke-width:5;stroke-linecap:round;stroke-linejoin:round"
       aria-label=".ccy" />
  </g>
</svg>
