<?xml version="1.0" encoding="UTF-8" standalone="no"?>
<!-- Created with Inkscape (http://www.inkscape.org/) -->

<svg
   width="103.966mm"
   height="32.778385mm"
   viewBox="0 0 103.96599 32.778385"
   version="1.1"
   id="svg1"
   inkscape:version="1.4 (1:1.4+202410161351+e7c3feb100)"
   sodipodi:docname="chxccy_wt.svg"
   xmlns:inkscape="http://www.inkscape.org/namespaces/inkscape"
   xmlns:sodipodi="http://sodipodi.sourceforge.net/DTD/sodipodi-0.dtd"
   xmlns="http://www.w3.org/2000/svg"
   xmlns:svg="http://www.w3.org/2000/svg">
  <sodipodi:namedview
     id="namedview1"
     pagecolor="#505050"
     bordercolor="#eeeeee"
     borderopacity="1"
     inkscape:showpageshadow="0"
     inkscape:pageopacity="0"
     inkscape:pagecheckerboard="0"
     inkscape:deskcolor="#505050"
     inkscape:document-units="mm"
     inkscape:zoom="1.0078851"
     inkscape:cx="373.55449"
     inkscape:cy="99.21766"
     inkscape:window-width="1920"
     inkscape:window-height="1002"
     inkscape:window-x="0"
     inkscape:window-y="0"
     inkscape:window-maximized="1"
     inkscape:current-layer="layer1" />
  <defs
     id="defs1" />
  <g
     inkscape:label="Layer 1"
     inkscape:groupmode="layer"
     id="layer1"
     transform="translate(6.261425,-130.91649)">
    <path
       id="path106"
       style="font-weight:860;font-size:25.4px;line-height:0.4;font-family:Garet;-inkscape-font-specification:'Garet weight=860';text-align:center;text-anchor:middle;fill:#ffffff;fill-opacity:1;stroke-width:1.05833"
       d="m 44.129815,130.92478 a 0.39687499,0.39687499 0 0 0 -0.204122,0.0114 0.39687499,0.39687499 0 0 0 -0.252181,0.50178 c 1.23747,3.72218 1.64002,6.99662 1.19941,9.78907 -0.44062,2.79245 -1.71113,5.10883 -3.8809,6.9727 a 0.39687499,0.39687499 0 0 0 -0.04289,0.56069 0.39687499,0.39687499 0 0 0 0.560173,0.0429 c 2.30167,-1.97718 3.681544,-4.49131 4.148584,-7.45123 0.46704,-2.95992 0.03264,-6.35847 -1.232483,-10.16372 a 0.39687499,0.39687499 0 0 0 -0.295589,-0.26355 z m -28.612724,8.69095 a 0.69624062,0.69624062 0 0 0 -0.696598,0.69608 v 12.39356 c 0.19411,0 0.255262,-0.051 0.365352,-0.21084 0.11008,-0.15988 0.210178,-0.43514 0.308508,-0.73846 0.0983,-0.30331 0.194536,-0.63273 0.380856,-0.92966 0.18632,-0.29693 0.533999,-0.56792 0.964799,-0.56792 0.45792,0 0.800734,0.32085 0.994254,0.65215 0.19353,0.33131 0.313548,0.71099 0.449068,1.0666 0.13552,0.35561 0.284014,0.68305 0.459404,0.89246 0.17538,0.2094 0.340628,0.31419 0.659908,0.31419 0.29616,0 0.530365,-0.13742 0.765845,-0.41186 0.16649,-0.19404 0.315464,-0.45464 0.443384,-0.73639 v -0.88832 c 0,-0.64346 0.144144,-1.13462 0.432014,-1.47329 0.28786,-0.33867 0.694118,-0.50798 1.219048,-0.50798 0.508,0 0.897464,0.16091 1.168404,0.48265 0.27093,0.32173 0.406176,0.79613 0.406176,1.42266 v 0.44958 c 0.0547,0.0771 0.111103,0.14883 0.170533,0.20774 0.16704,0.16565 0.325558,0.24856 0.536918,0.24856 0.22675,0 0.325691,-0.0615 0.445451,-0.18965 0.11975,-0.12813 0.233632,-0.34149 0.347782,-0.58808 0.11414,-0.24659 0.22636,-0.52388 0.42168,-0.77307 0.19532,-0.2492 0.52402,-0.46716 0.91829,-0.46716 0.22435,0 0.442169,0.0883 0.597379,0.21911 0.1552,0.13082 0.258131,0.29058 0.340031,0.45682 0.16379,0.33248 0.254449,0.70873 0.361219,1.06247 0.10677,0.35374 0.229081,0.68078 0.375171,0.88263 0.14608,0.20187 0.266809,0.28939 0.543119,0.28939 0.24156,0 0.414061,-0.12178 0.605131,-0.40825 0.0449,-0.0673 0.0876,-0.14377 0.128674,-0.22531 v -1.90169 c 0,-1.79493 -0.499556,-3.20866 -1.498616,-4.2416 -0.98214,-1.04986 -2.319852,-1.5751 -4.013192,-1.5751 -1.35466,0 -2.523072,0.34754 -3.505212,1.0418 v -5.33766 a 0.60596156,0.60596156 0 0 0 -0.606165,-0.60616 z m -12.405961,0.6351 c -1.8288,0 -3.454305,0.38946 -4.876705,1.1684 -1.4224,0.77893 -2.531578,1.87083 -3.327445,3.27629 -0.778933,1.40547 -1.168405,3.0142 -1.168405,4.82606 0,0.95021 0.113913,1.84151 0.328146,2.67994 0.05615,0.0815 0.113678,0.15823 0.172082,0.22686 0.254962,0.29961 0.495177,0.44018 0.732255,0.43718 0.285021,-0.004 0.433359,-0.0989 0.59738,-0.2868 0.164022,-0.18792 0.309327,-0.48271 0.449585,-0.80512 0.140259,-0.3224 0.274324,-0.66828 0.488342,-0.97255 0.214019,-0.30428 0.571321,-0.57981 1.019576,-0.57981 0.3889,0 0.717573,0.13672 0.952914,0.32608 0.23534,0.18936 0.385739,0.41337 0.519348,0.60358 0.133609,0.1902 0.251401,0.34572 0.369486,0.44132 0.118084,0.0956 0.22649,0.15037 0.449068,0.15037 0.163089,0 0.307653,-0.0811 0.47439,-0.27336 0.02098,-0.0242 0.0419,-0.0498 0.06253,-0.077 -0.268935,-0.54285 -0.417546,-1.16066 -0.417546,-1.87069 0,-1.10066 0.313461,-1.98968 0.939994,-2.66702 0.643467,-0.67733 1.481642,-1.01596 2.514575,-1.01596 0.762,0 1.430863,0.20338 2.006596,0.60978 0.480788,0.31594 0.844637,0.72658 1.091407,1.23197 0.09665,0.19793 0.33203,0.36794 0.552421,0.36794 h 4.887557 c 0.404956,0 0.680448,-0.32435 0.587044,-0.71831 -0.306368,-1.29222 -0.825022,-2.43255 -1.555978,-3.42149 -0.846666,-1.18533 -1.94694,-2.09165 -3.301607,-2.71818 -1.337733,-0.62653 -2.853676,-0.93948 -4.547009,-0.93948 z m 36.068083,3.8933 c -4.39044,0.003 -7.960253,3.35373 -8.004163,7.51324 0.14668,0.13106 0.300977,0.19617 0.478007,0.2005 0.39362,0.01 0.603552,-0.0581 0.734322,-0.13487 0.13077,-0.0768 0.204353,-0.17271 0.295073,-0.31213 0.0907,-0.13942 0.181958,-0.33635 0.413928,-0.49609 0.23197,-0.1597 0.567753,-0.19015 0.917773,-0.094 0.29294,0.0805 0.477765,0.30355 0.609265,0.53743 0.1315,0.23387 0.225873,0.50579 0.312643,0.81235 0.17355,0.6131 0.308894,1.36396 0.478524,2.10169 0.16962,0.73774 0.375076,1.45971 0.652156,1.98024 0.27709,0.52052 0.580845,0.80578 0.994255,0.85938 0.47258,0.0612 0.704389,-0.0569 0.929659,-0.28888 0.22527,-0.23202 0.410052,-0.61732 0.576192,-1.04696 0.16614,-0.42963 0.312994,-0.89361 0.548804,-1.29294 0.23581,-0.39934 0.642087,-0.76672 1.185457,-0.76172 0.468,0.004 0.84692,0.1806 1.09399,0.42789 0.24706,0.2473 0.375534,0.53084 0.496094,0.76946 0.12057,0.23862 0.229385,0.43116 0.363285,0.55087 0.1339,0.11968 0.293158,0.20102 0.642338,0.20102 0.29546,0 0.512979,-0.12966 0.752409,-0.39067 0.23942,-0.26102 0.463762,-0.6479 0.683162,-1.05679 0.2194,-0.40888 0.432527,-0.83744 0.703317,-1.19321 0.2708,-0.35575 0.647736,-0.67386 1.142566,-0.67386 0.36845,0 0.691144,0.13048 0.939994,0.3204 0.0443,-0.31267 0.0679,-0.62763 0.0708,-0.9431 -10e-6,-1.95334 -0.79474,-3.82411 -2.20555,-5.22965 -0.21796,-0.21715 -0.529211,-0.16021 -0.691431,0.10128 -0.65576,1.05709 -1.473659,2.01675 -2.445329,2.8696 0.23029,0.0816 0.480039,0.14343 0.750859,0.18603 a 0.39687499,0.39687499 0 0 1 0.330212,0.45527 0.39687499,0.39687499 0 0 1 -0.453202,0.3297 c -1.64088,-0.25813 -2.806999,-1.26984 -3.328479,-2.88045 a 0.39687499,0.39687499 0 0 1 0.256315,-0.50023 0.39687499,0.39687499 0 0 1 0.499711,0.2558 c 0.0907,0.28022 0.198034,0.53301 0.321944,0.76068 0.94808,-0.78681 1.716001,-1.66433 2.314071,-2.64428 0.15507,-0.25409 0.05121,-0.57433 -0.224793,-0.68575 -0.98931,-0.39936 -2.055105,-0.60651 -3.134175,-0.6072 z m 17.526062,0.37362 c -1.524,0 -2.887403,0.30507 -4.089673,0.91467 -1.18533,0.59266 -2.116288,1.43085 -2.793628,2.51458 -0.37635,0.61762 -0.632904,1.29053 -0.794784,2.00711 0.19835,0.0262 0.381369,0.12654 0.506429,0.25322 0.14169,0.14352 0.230535,0.31108 0.304375,0.48627 0.14769,0.35038 0.233576,0.7528 0.334346,1.13482 0.10077,0.38202 0.217464,0.73996 0.355534,0.95911 0.13808,0.21921 0.229745,0.29132 0.451135,0.28732 0.25369,-0.005 0.36502,-0.0826 0.49196,-0.24236 0.12694,-0.15976 0.233571,-0.41968 0.324011,-0.70693 0.0904,-0.28724 0.162738,-0.59332 0.289388,-0.87334 0.0633,-0.14001 0.140124,-0.27783 0.269234,-0.39842 0.12912,-0.12054 0.32614,-0.21084 0.52555,-0.21084 0.33599,0 0.618525,0.19604 0.784965,0.40256 0.16644,0.20651 0.269293,0.43078 0.371553,0.6289 0.10226,0.19813 0.201423,0.36687 0.296623,0.46457 0.0688,0.0706 0.120944,0.11039 0.200504,0.12713 -0.0375,-0.19287 -0.06253,-0.39394 -0.06253,-0.61082 0,-0.74506 0.211257,-1.33793 0.634587,-1.77819 0.44027,-0.4572 1.016343,-0.68574 1.727543,-0.68574 0.52493,0 0.982022,0.11846 1.371492,0.35553 0.2371,0.1383 0.442283,0.31439 0.615983,0.52762 0.21189,0.26011 0.596502,0.51418 0.93276,0.51418 h 3.98219 c 0.42414,0 0.73026,-0.34302 0.63458,-0.75603 -0.21066,-0.9094 -0.58949,-1.72453 -1.13636,-2.44481 -0.69427,-0.9144 -1.60846,-1.61681 -2.74299,-2.10788 -1.117592,-0.508 -2.379309,-0.76223 -3.784779,-0.76223 z m 16.941597,0 c -1.524,0 -2.88688,0.30507 -4.08915,0.91467 -1.18533,0.59266 -2.11682,1.43085 -2.79415,2.51458 -0.47673,0.78234 -0.77536,1.64682 -0.90795,2.58796 0.0106,0.0237 0.0205,0.0471 0.0315,0.0708 0.13645,0.29304 0.30329,0.58019 0.47232,0.77153 0.16903,0.19133 0.31451,0.26775 0.42788,0.26975 0.18604,0.004 0.24426,-0.0326 0.31626,-0.0956 0.072,-0.063 0.14943,-0.18254 0.24443,-0.34571 0.095,-0.16317 0.20823,-0.37001 0.41187,-0.54881 0.20364,-0.17879 0.5065,-0.30327 0.85782,-0.30127 0.4342,0.002 0.7613,0.30833 0.9431,0.61753 0.1818,0.30921 0.29155,0.6584 0.41238,0.98444 0.12082,0.32603 0.25095,0.6249 0.39842,0.81028 0.14746,0.18538 0.26899,0.26769 0.52503,0.26769 0.26016,0 0.40773,-0.0898 0.55501,-0.26355 0.039,-0.0461 0.0757,-0.0994 0.11059,-0.15761 -0.0989,-0.28862 -0.15038,-0.60729 -0.15038,-0.95912 0,-0.74506 0.21177,-1.33793 0.6351,-1.77819 0.44027,-0.4572 1.01583,-0.68574 1.72703,-0.68574 0.52493,0 0.98202,0.11846 1.37149,0.35553 0.24431,0.14251 0.455,0.32519 0.632,0.54726 0.20052,0.25158 0.56955,0.49454 0.89194,0.49454 h 3.93774 c 0.46258,0 0.79662,-0.37436 0.68782,-0.82372 -0.21358,-0.88216 -0.58709,-1.67477 -1.12035,-2.37712 -0.69427,-0.9144 -1.60844,-1.61681 -2.74298,-2.10788 -1.1176,-0.508 -2.37932,-0.76223 -3.78479,-0.76223 z m 8.63669,0.35554 a 0.55320806,0.55320806 0 0 0 -0.5085,0.77101 l 1.84071,4.29793 c 0.25528,-0.25087 0.63227,-0.42409 1.07384,-0.42013 0.27507,0.002 0.52846,0.11997 0.71675,0.28473 0.18829,0.16475 0.32557,0.37025 0.44545,0.59583 0.23975,0.45115 0.4096,0.99568 0.58601,1.52343 0.17642,0.52774 0.36131,1.03696 0.57051,1.37717 0.20919,0.3402 0.37836,0.47439 0.6227,0.47439 0.69075,0 0.88358,-0.2795 1.12293,-0.66972 0.11967,-0.19511 0.22514,-0.41626 0.38499,-0.62684 0.15984,-0.21058 0.43411,-0.42708 0.77722,-0.43408 0.31646,-0.006 0.59931,0.16012 0.76016,0.34778 0.16086,0.18766 0.24643,0.38261 0.33383,0.54519 0.0874,0.16258 0.17141,0.28953 0.25941,0.36483 0.088,0.0753 0.17597,0.1233 0.38499,0.12351 0.12682,1.1e-4 0.18876,-0.0476 0.31833,-0.25632 0.12957,-0.2087 0.25667,-0.54708 0.39842,-0.90795 0.14175,-0.36087 0.29893,-0.74633 0.56069,-1.07435 0.26176,-0.32802 0.67246,-0.5917 1.17771,-0.5917 0.49511,0 0.91304,0.22574 1.19941,0.52917 0.0693,0.0734 0.13163,0.1512 0.18913,0.23151 l 2.15388,-5.46013 a 0.74979279,0.74979279 0 0 0 -0.69763,-1.02526 h -4.17443 a 1.1951852,1.1951852 0 0 0 -1.14721,0.85989 l -0.84078,2.87424 -0.81287,2.94608 h -0.076 l -0.94,-2.94608 -0.9834,-3.01118 a 1.047789,1.047789 0 0 0 -0.99581,-0.72295 z m 2.3983,5.44101 v 5.1e-4 c -0.25216,-0.002 -0.38817,0.0721 -0.51366,0.19741 -0.0719,0.0718 -0.13523,0.16831 -0.18966,0.27698 l 3.07992,7.19078 c -0.0572,0.1397 -0.12254,0.26382 -0.19637,0.37259 v 5.1e-4 c -0.12301,0.18111 -0.26951,0.31926 -0.43873,0.41445 -0.27093,0.16933 -0.6688,0.25373 -1.19373,0.25373 h -1.13481 a 0.77057813,0.77057813 0 0 0 -0.7705,0.7705 v 3.11092 a 0.79220375,0.79220375 0 0 0 0.7922,0.7922 h 1.64641 c 0.16087,0 0.31811,-0.002 0.47129,-0.006 1.07228,-0.0278 1.95616,-0.15292 2.65255,-0.37517 0.79586,-0.23706 1.45635,-0.65221 1.98128,-1.24488 0.52494,-0.59267 0.99093,-1.43084 1.39733,-2.51458 l 2.84995,-7.22488 c -0.1,-0.25593 -0.2305,-0.49419 -0.38447,-0.65732 -0.17298,-0.18325 -0.35017,-0.28112 -0.62115,-0.28112 -0.26084,0 -0.3948,0.0898 -0.55656,0.29249 -0.16176,0.2027 -0.3072,0.52458 -0.44338,0.87126 -0.13618,0.34669 -0.26326,0.71538 -0.46302,1.03715 -0.19977,0.32178 -0.54129,0.62929 -0.99219,0.6289 -0.3687,-3.8e-4 -0.68482,-0.1282 -0.90227,-0.31419 -0.21745,-0.18598 -0.34232,-0.40803 -0.44132,-0.59222 -0.099,-0.18419 -0.17717,-0.33471 -0.23667,-0.40411 -0.0595,-0.0694 -0.0511,-0.0723 -0.14211,-0.0703 -0.0643,0.001 -0.0747,0.006 -0.16227,0.12093 -0.0438,0.0577 -0.0918,0.13934 -0.14728,0.23616 v 5.2e-4 c -0.0554,0.0967 -0.11852,0.20843 -0.19068,0.32607 -0.28897,0.47112 -0.83613,1.04852 -1.80093,1.04852 -0.58343,0 -1.02037,-0.39731 -1.30069,-0.85318 -0.28031,-0.45586 -0.46566,-1.00625 -0.64441,-1.54099 -0.17875,-0.53474 -0.35039,-1.05442 -0.53537,-1.4025 -0.0925,-0.17405 -0.18798,-0.30134 -0.26768,-0.37104 -0.0797,-0.0697 -0.12702,-0.0892 -0.20102,-0.0899 z m -35.755957,0.42633 c -0.0167,-4.7e-4 -0.02626,3.6e-4 -0.03876,5.1e-4 -0.0336,0.29777 -0.05581,0.60086 -0.05581,0.91416 0,0.5207 0.04665,1.02028 0.139526,1.4981 0.06192,0.31855 0.144338,0.62758 0.24753,0.92708 0.154787,0.44924 0.355931,0.87672 0.603581,1.28312 0.6604,1.08374 1.582976,1.9303 2.768306,2.5399 1.051987,0.51858 2.233694,0.81051 3.545004,0.8754 0.18733,0.009 0.377374,0.014 0.569991,0.014 1.43934,0 2.717821,-0.25423 3.835429,-0.76223 1.13454,-0.508 2.04871,-1.23609 2.74298,-2.18436 0.55508,-0.7401 0.94028,-1.57797 1.15497,-2.51406 0.10188,-0.44422 -0.22926,-0.81339 -0.68523,-0.81339 h -3.90467 c -0.36147,0 -0.75076,0.28328 -0.96015,0.57671 -0.16433,0.23029 -0.367288,0.42751 -0.608748,0.5917 -0.4064,0.27093 -0.888657,0.40669 -1.447457,0.40669 -0.4445,0 -0.836356,-0.0859 -1.175122,-0.25786 -0.06775,-0.0344 -0.133371,-0.0724 -0.196888,-0.11369 -0.127031,-0.0825 -0.245468,-0.17881 -0.355533,-0.28887 -0.10911,-0.11783 -0.202764,-0.24554 -0.283704,-0.38138 -0.0589,0.0107 -0.119848,0.0165 -0.182418,0.0165 -0.09016,0 -0.177382,-0.0101 -0.260449,-0.0289 -0.04153,-0.009 -0.08203,-0.0212 -0.12144,-0.0346 -0.07883,-0.0268 -0.153233,-0.0609 -0.222208,-0.10077 -0.03449,-0.0199 -0.06754,-0.0411 -0.09922,-0.0636 -0.06336,-0.0449 -0.120818,-0.0947 -0.171566,-0.14676 -0.20298,-0.20829 -0.327312,-0.44642 -0.435632,-0.65629 -0.10832,-0.20986 -0.203017,-0.39453 -0.283187,-0.49403 -0.0745,-0.0926 -0.09551,-0.0987 -0.153996,-0.0997 -0.0142,0.0151 -0.04803,0.0549 -0.08423,0.13488 -0.0776,0.17159 -0.155919,0.4677 -0.255799,0.78496 -0.0999,0.31725 -0.221356,0.66381 -0.458886,0.96274 -0.23753,0.29892 -0.624578,0.53412 -1.097608,0.54312 -0.50532,0.01 -0.911848,-0.29791 -1.138948,-0.65836 -0.22709,-0.36045 -0.345576,-0.78116 -0.451136,-1.18133 -0.10556,-0.40016 -0.196159,-0.78406 -0.298689,-1.02732 -0.0513,-0.12163 -0.104543,-0.20388 -0.136943,-0.23668 -0.0324,-0.0324 -0.02309,-0.0243 -0.04289,-0.0248 z m -22.247738,0.014 c -0.14834,0 -0.191825,0.0327 -0.293005,0.16175 -0.10117,0.12908 -0.208826,0.35769 -0.328146,0.61546 -0.11933,0.25778 -0.252485,0.54878 -0.486275,0.79892 -0.23379,0.25014 -0.595827,0.44132 -1.025777,0.44132 -0.09812,0 -0.192599,-0.01 -0.283704,-0.0289 -0.06074,-0.0126 -0.119871,-0.0293 -0.17725,-0.0491 -0.08607,-0.0296 -0.168515,-0.0668 -0.246497,-0.10956 v 5.35988 a 0.46722406,0.46722406 0 0 0 0.288355,0.4315 0.46722406,0.46722406 0 0 0 0.1788,0.0357 h 4.675684 a 0.64872928,0.64872928 0 0 0 0.524516,-0.26717 0.64872928,0.64872928 0 0 1 5.17e-4,0 0.64872928,0.64872928 0 0 0 0.09198,-0.18087 0.64872928,0.64872928 0 0 0 0.03152,-0.2005 v -4.3217 c -0.21241,0.13736 -0.458435,0.22324 -0.733805,0.22324 -0.51852,0 -0.937114,-0.27523 -1.185974,-0.61908 -0.24885,-0.34386 -0.37911,-0.74545 -0.49196,-1.11931 -0.05642,-0.18694 -0.108756,-0.36821 -0.160197,-0.52969 -0.03858,-0.12111 -0.07648,-0.23118 -0.115238,-0.32349 -0.01292,-0.0308 -0.02614,-0.0597 -0.03927,-0.0863 -0.0525,-0.10657 -0.104873,-0.17272 -0.138493,-0.20102 -0.0336,-0.0282 -0.03878,-0.031 -0.08578,-0.031 z m -19.446358,0.16433 c -0.29762,0 -0.616033,0.23007 -0.754993,0.49299 -0.06363,0.12038 -0.13302,0.2357 -0.208773,0.3452 -0.03788,0.0548 -0.07743,0.10765 -0.118339,0.15968 v 5.2e-4 c -0.204523,0.26017 -0.447018,0.48595 -0.727087,0.678 -0.59267,0.4064 -1.28669,0.60926 -2.08256,0.60926 -0.249768,0 -0.488164,-0.0212 -0.715719,-0.0636 -0.682664,-0.12699 -1.265611,-0.44439 -1.748214,-0.9524 -0.0286,-0.0317 -0.04763,-0.0693 -0.07493,-0.1018 -0.03145,0.0317 -0.06417,0.0624 -0.09819,0.092 -0.03392,0.0295 -0.06955,0.0584 -0.105936,0.0853 -0.0365,0.027 -0.07374,0.0522 -0.112655,0.076 -0.194558,0.11904 -0.419078,0.19534 -0.66766,0.19534 -0.38741,0 -0.715176,-0.13662 -0.949296,-0.32608 -0.23411,-0.18946 -0.384468,-0.41169 -0.517798,-0.60151 -0.13334,-0.18982 -0.250079,-0.34562 -0.368969,-0.44132 -0.1189,-0.0957 -0.229593,-0.15038 -0.454753,-0.15038 -0.04145,0 -0.07696,0.003 -0.109037,0.0114 -0.03192,0.008 -0.06093,0.0209 -0.08837,0.0393 -0.05501,0.0371 -0.106077,0.0978 -0.172082,0.19172 -0.13224,0.18801 -0.264281,0.4963 -0.410311,0.83199 -0.14604,0.33568 -0.30968,0.70026 -0.57981,1.00975 -0.27014,0.3095 -0.680627,0.55163 -1.185457,0.55863 -0.14913,0.002 -0.290967,-0.0209 -0.425297,-0.062 0.11089,0.25362 0.2175,0.50924 0.3514,0.75086 0.447676,0.79057 0.994799,1.48242 1.640726,2.07481 0.07177,0.0658 0.144375,0.13041 0.218592,0.19379 0.44538,0.38035 0.934609,0.71604 1.468127,1.00821 0.0889,0.0487 0.178613,0.096 0.269234,0.14159 0.09062,0.0456 0.182059,0.0897 0.274402,0.13229 1.292909,0.5965 2.754223,0.89452 4.384229,0.89452 0.211493,0 0.420884,-0.005 0.627352,-0.015 h 5.16e-4 c 0.206455,-0.01 0.410935,-0.0254 0.612366,-0.0455 0.201424,-0.0201 0.40046,-0.0448 0.596863,-0.0749 0.98285,-0.15085 1.902788,-0.42776 2.760038,-0.82993 1.3716,-0.6604 2.489167,-1.58348 3.352767,-2.76882 0.7487,-1.00786 1.252536,-2.15635 1.511536,-3.44578 0.0765,-0.38096 -0.200978,-0.69402 -0.589628,-0.69402 z m 9.608199,0.13229 c -0.15397,0 -0.191376,0.0354 -0.293006,0.19741 -0.10162,0.16196 -0.196602,0.44336 -0.296622,0.75189 -0.10002,0.30854 -0.206488,0.64408 -0.412378,0.94309 -0.20589,0.29901 -0.570779,0.55501 -1.017509,0.55501 v 4.2168 a 0.69624062,0.69624062 0 0 0 0.696598,0.69608 h 4.527372 a 0.56751844,0.56751844 0 0 0 0.567408,-0.56741 v -4.39146 c -0.3167,0.30477 -0.726539,0.52658 -1.209229,0.52658 -0.54364,0 -0.983363,-0.26056 -1.267623,-0.59996 -0.28426,-0.3394 -0.450422,-0.74475 -0.593762,-1.12087 -0.14334,-0.37613 -0.265701,-0.72972 -0.392741,-0.94722 -0.12705,-0.21746 -0.181658,-0.25994 -0.308508,-0.25994 z m 51.773064,0.0992 5.2e-4,5.2e-4 c -0.1907,-0.001 -0.25501,0.0373 -0.33021,0.10335 -0.0376,0.033 -0.0755,0.0796 -0.11627,0.13849 v 5.2e-4 c -0.0407,0.0588 -0.0845,0.12958 -0.13178,0.21084 -0.0237,0.0407 -0.0484,0.0839 -0.0754,0.12868 v 5.1e-4 c -0.0269,0.0447 -0.0564,0.0908 -0.0889,0.13746 v 5.2e-4 c -0.0652,0.0935 -0.1441,0.1888 -0.24546,0.2775 -0.15211,0.13312 -0.36074,0.2341 -0.60203,0.27337 -0.0805,0.0131 -0.1646,0.0193 -0.25167,0.0176 -0.20391,-0.005 -0.38738,-0.0645 -0.55087,-0.1571 h -5.2e-4 c -0.16359,-0.0927 -0.30705,-0.21825 -0.43098,-0.3545 0.0415,1.27587 0.35817,2.42471 0.9741,3.43545 0.6604,1.08374 1.5835,1.9303 2.76883,2.5399 0.30056,0.14817 0.61209,0.27796 0.93379,0.38912 0.64341,0.22232 1.32865,0.37079 2.05672,0.44494 h 5.2e-4 c 0.18185,0.0185 0.36631,0.0321 0.55345,0.0413 h 5.2e-4 c 0.18732,0.009 0.37686,0.014 0.56947,0.014 0.53975,0 1.05734,-0.0355 1.55185,-0.10697 0.82398,-0.11915 1.58522,-0.33782 2.28358,-0.65526 0.8509,-0.381 1.57844,-0.88548 2.18178,-1.51412 0.20111,-0.20954 0.38815,-0.43317 0.56172,-0.67024 0.5377,-0.71694 0.91549,-1.52588 1.13378,-2.42673 0.0148,-0.0612 0.0223,-0.12127 0.0227,-0.17931 v -5.2e-4 c 1.8e-4,-0.0289 -0.001,-0.0574 -0.005,-0.0853 v -5.1e-4 c -0.016,-0.14033 -0.0731,-0.26661 -0.16071,-0.36897 -0.0175,-0.0205 -0.0365,-0.0399 -0.0563,-0.0584 -0.0595,-0.0553 -0.12912,-0.10137 -0.20671,-0.13591 h -5.1e-4 c -0.0776,-0.0345 -0.16313,-0.0578 -0.25425,-0.0672 h -5.2e-4 c -0.0304,-0.003 -0.0614,-0.005 -0.093,-0.005 h -3.88452 c -0.32302,0 -0.67162,0.25161 -0.85111,0.51935 -0.17096,0.25501 -0.38679,0.47141 -0.64802,0.64905 -0.0507,0.0338 -0.10302,0.066 -0.15607,0.0956 -0.3723,0.20749 -0.80296,0.31109 -1.29191,0.31109 -0.7112,0 -1.28675,-0.22015 -1.72702,-0.66042 -0.0218,-0.0236 -0.0367,-0.0517 -0.0574,-0.076 -0.26291,0.27289 -0.64385,0.47077 -1.09295,0.47077 -0.4923,0 -0.89484,-0.2504 -1.14619,-0.56638 -0.0627,-0.0789 -0.11881,-0.16112 -0.16949,-0.24546 v -5.2e-4 c -0.1522,-0.25343 -0.25661,-0.52568 -0.35192,-0.78289 -0.12709,-0.34295 -0.23807,-0.66417 -0.35192,-0.85783 -0.11386,-0.1937 -0.15572,-0.22369 -0.26355,-0.22428 z m -35.012847,0.39791 c -0.0334,8.9e-4 -0.04181,0.0111 -0.05271,0.0186 -0.0217,0.015 -0.0898,0.10901 -0.199471,0.27751 -0.10965,0.16851 -0.276692,0.39669 -0.558622,0.56224 -0.28192,0.1655 -0.658902,0.25879 -1.156002,0.24649 -0.14114,-0.004 -0.274006,-0.0292 -0.399976,-0.0698 0.45626,3.83294 3.874579,6.73194 7.945769,6.73861 3.64251,-0.006 6.822115,-2.33968 7.738545,-5.67976 -0.0667,-0.11153 -0.141609,-0.21234 -0.223759,-0.28835 -0.14221,-0.13163 -0.28846,-0.20309 -0.51573,-0.20309 -0.16028,0 -0.309487,0.0957 -0.511597,0.36121 -0.2021,0.26552 -0.410023,0.66676 -0.635103,1.08624 -0.22509,0.41948 -0.467961,0.85828 -0.798401,1.21853 -0.33044,0.36025 -0.782763,0.64648 -1.336353,0.64648 -0.49988,1e-5 -0.899255,-0.1607 -1.171505,-0.40411 -0.27225,-0.24341 -0.418469,-0.53672 -0.543119,-0.78342 -0.12464,-0.24669 -0.230183,-0.44711 -0.349333,-0.56637 -0.11915,-0.11926 -0.238321,-0.19027 -0.539501,-0.19327 -0.22581,-0.002 -0.328147,0.0886 -0.494027,0.36948 -0.16588,0.28092 -0.31563,0.71967 -0.49196,1.17564 -0.17633,0.45598 -0.379947,0.93691 -0.746207,1.31414 -0.36625,0.37724 -0.92725,0.61108 -1.60352,0.52348 -0.73544,-0.0953 -1.250984,-0.63336 -1.591634,-1.27331 -0.34065,-0.63994 -0.549971,-1.41423 -0.725021,-2.17558 -0.17505,-0.76135 -0.312565,-1.51132 -0.468705,-2.06292 -0.0781,-0.2758 -0.163866,-0.50158 -0.241846,-0.64027 -0.078,-0.13866 -0.133724,-0.1622 -0.127124,-0.1602 -0.11136,-0.0306 -0.169688,-0.0391 -0.203088,-0.0382 z" />
  </g>
</svg>
